<svg enable-background="new 0 0 120.2 125.4" viewBox="0 0 120.2 125.4" xmlns="http://www.w3.org/2000/svg" xmlns:xlink="http://www.w3.org/1999/xlink"><linearGradient id="a" gradientUnits="userSpaceOnUse" x1="52.9218" x2="112.0661" y1="58.36" y2="90.4864"><stop offset=".09342061" stop-color="#704532"/><stop offset=".3299" stop-color="#915a3f"/><stop offset=".6617" stop-color="#bd744e"/><stop offset=".8253" stop-color="#cf8055"/></linearGradient><path d="m112.4 46.7c-6.5-23.3-29.2-41.2-54-38.4-.1-.2-.3-.2-.6-.2-22.7 2.3-41.2 18.6-48 39.9-.9 2.7-1.5 5.4-2.1 8.2-.2.1-.3.4-.1.5-.2 1-.3 2-.4 3-.1.1-.1.2 0 .3-.9 7.3-.5 14.8 1.5 21.8.8 2.9 2 5.6 3.4 8.1 0 .2.1.4.3.5 3.8 6.5 9.4 11.8 15.9 16.1 9.8 6.4 20.5 10.8 32.3 10.7 1.3 0 2.6-.1 3.9-.2.2.2.7.2.8-.1 9-.8 17.7-3.9 25.3-8.6 9.9-6.2 17.1-14.5 20.7-25.6 3.7-11.6 4.4-24.3 1.1-36z" fill="#cf8055"/><path d="m113.2 50.3-54.5-24.3-11.5 70 37 15.8c2.2-1 4.4-2.2 6.5-3.5 9.9-6.2 17.1-14.5 20.7-25.6 3.3-10.4 4.1-21.6 1.8-32.4z" fill="url(#a)"/><path d="m60 97.7c-29.8-4.6-29-35.7-29-35.7.4-30.2 29-33.8 29-33.8s28.6 3.6 29 33.8c-.1.1.8 31.1-29 35.7z" style="fill:#fff;stroke:#fff;stroke-width:2.7;stroke-linecap:round;stroke-linejoin:round;stroke-miterlimit:10"/><path d="m60 91.9c-24.1-3.1-24.3-30.5-24.3-30.5 1-24.7 24.3-27 24.3-27s23.3 2.3 24.3 27c0-.1-.2 27.3-24.3 30.5z" fill="#cf8055"/><g fill="#fff" stroke="#cf8055" stroke-miterlimit="10"><path d="m62.2 45.7c-.3-1-.5-2-.3-3 .3-1 1.2-1.9 2.2-1.7-.3-1 1.1-1.6 2.1-1.7 1.2-.1 2.5-.2 3.5.4s1.5 2.2.6 3c1.9.5 3.7 1.5 4.7 3.2s1.1 4-.2 5.5c3.1 1.5 4.7 4 5.3 7.4s-.5 7.4-3.9 7.7c2.6 2.6 3.2 5 2.3 8.5-.5 1.7-1.6 4.2-3.1 5.1s-3.8 1.6-4.5 0c-.2 2.4-.8 3.1-2.2 3.9-1.3.8-2.9 2-3.8.7-.1 1-1 2-2 2-1 .1-2.1-.7-2.3-1.7-.1-.7.1-1.4.1-2.1.1-1.5-.6-2.9-.7-4.4s.9-3.2 2.4-3c-2-1.9-1.9-5.5.2-7.2-1.6-.9-2-3.4-.8-4.7.3-.3.7-.6.7-1 .1-.5-.2-1-.6-1.4-.8-1.1-1.4-2.3-1.3-3.6s1-2.6 2.3-2.8c-2.6-2.3-2.8-6.9-.5-9.4"/><path d="m57.7 45.7c.3-1 .5-2 .3-3-.3-1-1.2-1.9-2.2-1.7.3-1-1.1-1.6-2.1-1.7-1.2-.1-2.5-.2-3.5.4s-1.5 2.2-.6 3c-1.9.5-3.7 1.5-4.7 3.2s-1.1 4 .2 5.5c-3.1 1.5-4.7 4-5.3 7.4s.5 7.4 3.9 7.7c-2.6 2.6-3.2 5-2.3 8.5.5 1.7 1.6 4.2 3.1 5.1s3.8 1.6 4.5 0c.2 2.4.8 3.1 2.2 3.9 1.3.8 2.9 2 3.8.7.1 1 1 2 2 2 1 .1 2.1-.7 2.3-1.7.1-.7-.1-1.4-.1-2.1-.1-1.5.6-2.9.7-4.4s-.9-3.2-2.4-3c2-1.9 1.9-5.5-.2-7.2 1.6-.9 2-3.4.8-4.7-.3-.3-.7-.6-.7-1-.1-.5.2-1 .6-1.4.8-1.1 1.4-2.3 1.3-3.6s-1-2.6-2.3-2.8c2.6-2.3 2.8-6.9.5-9.4"/></g></svg>